<svg id="visual" viewBox="0 0 900 600" width="900" height="600" xmlns="http://www.w3.org/2000/svg" xmlns:xlink="http://www.w3.org/1999/xlink" version="1.1"><rect x="0" y="0" width="900" height="600" fill="#2e0020"></rect><path d="M0 336L18.8 338.3C37.7 340.7 75.3 345.3 112.8 347.2C150.3 349 187.7 348 225.2 347.5C262.7 347 300.3 347 337.8 344C375.3 341 412.7 335 450.2 332.2C487.7 329.3 525.3 329.7 562.8 342.2C600.3 354.7 637.7 379.3 675.2 387C712.7 394.7 750.3 385.3 787.8 376.5C825.3 367.7 862.7 359.3 881.3 355.2L900 351L900 601L881.3 601C862.7 601 825.3 601 787.8 601C750.3 601 712.7 601 675.2 601C637.7 601 600.3 601 562.8 601C525.3 601 487.7 601 450.2 601C412.7 601 375.3 601 337.8 601C300.3 601 262.7 601 225.2 601C187.7 601 150.3 601 112.8 601C75.3 601 37.7 601 18.8 601L0 601Z" fill="#c62368"></path><path d="M0 430L18.8 432.7C37.7 435.3 75.3 440.7 112.8 441.7C150.3 442.7 187.7 439.3 225.2 428.8C262.7 418.3 300.3 400.7 337.8 403.7C375.3 406.7 412.7 430.3 450.2 432.5C487.7 434.7 525.3 415.3 562.8 412.8C600.3 410.3 637.7 424.7 675.2 424.3C712.7 424 750.3 409 787.8 394.8C825.3 380.7 862.7 367.3 881.3 360.7L900 354L900 601L881.3 601C862.7 601 825.3 601 787.8 601C750.3 601 712.7 601 675.2 601C637.7 601 600.3 601 562.8 601C525.3 601 487.7 601 450.2 601C412.7 601 375.3 601 337.8 601C300.3 601 262.7 601 225.2 601C187.7 601 150.3 601 112.8 601C75.3 601 37.7 601 18.8 601L0 601Z" fill="#e9585a"></path><path d="M0 435L18.8 444.5C37.7 454 75.3 473 112.8 470.5C150.3 468 187.7 444 225.2 444.2C262.7 444.3 300.3 468.7 337.8 473.7C375.3 478.7 412.7 464.3 450.2 460.2C487.7 456 525.3 462 562.8 463.2C600.3 464.3 637.7 460.7 675.2 462.7C712.7 464.7 750.3 472.3 787.8 467.3C825.3 462.3 862.7 444.7 881.3 435.8L900 427L900 601L881.3 601C862.7 601 825.3 601 787.8 601C750.3 601 712.7 601 675.2 601C637.7 601 600.3 601 562.8 601C525.3 601 487.7 601 450.2 601C412.7 601 375.3 601 337.8 601C300.3 601 262.7 601 225.2 601C187.7 601 150.3 601 112.8 601C75.3 601 37.7 601 18.8 601L0 601Z" fill="#fc8d54"></path><path d="M0 472L18.8 479.2C37.7 486.3 75.3 500.7 112.8 505C150.3 509.3 187.7 503.7 225.2 496.3C262.7 489 300.3 480 337.8 474.5C375.3 469 412.7 467 450.2 474C487.7 481 525.3 497 562.8 495.8C600.3 494.7 637.7 476.3 675.2 470.8C712.7 465.3 750.3 472.7 787.8 476.2C825.3 479.7 862.7 479.3 881.3 479.2L900 479L900 601L881.3 601C862.7 601 825.3 601 787.8 601C750.3 601 712.7 601 675.2 601C637.7 601 600.3 601 562.8 601C525.3 601 487.7 601 450.2 601C412.7 601 375.3 601 337.8 601C300.3 601 262.7 601 225.2 601C187.7 601 150.3 601 112.8 601C75.3 601 37.7 601 18.8 601L0 601Z" fill="#ffc15f"></path><path d="M0 517L18.8 523C37.7 529 75.3 541 112.8 546.5C150.3 552 187.7 551 225.2 550.8C262.7 550.7 300.3 551.3 337.8 553.2C375.3 555 412.7 558 450.2 551C487.7 544 525.3 527 562.8 521.5C600.3 516 637.7 522 675.2 529.5C712.7 537 750.3 546 787.8 550.5C825.3 555 862.7 555 881.3 555L900 555L900 601L881.3 601C862.7 601 825.3 601 787.8 601C750.3 601 712.7 601 675.2 601C637.7 601 600.3 601 562.8 601C525.3 601 487.7 601 450.2 601C412.7 601 375.3 601 337.8 601C300.3 601 262.7 601 225.2 601C187.7 601 150.3 601 112.8 601C75.3 601 37.7 601 18.8 601L0 601Z" fill="#fcf482"></path></svg>